<svg xmlns="http://www.w3.org/2000/svg" width="2029" height="300" viewBox="0 0 2029 300" fill="none"><path d="M436.578 233.206C417.229 233.206 402.143 228.54 391.239 219.127C380.335 209.795 374.842 197.435 374.842 182.128C374.842 165.921 380.499 153.479 391.813 144.72C403.127 135.962 419.36 131.623 440.431 131.623H487.409V125.32C487.409 107.64 476.833 98.8812 455.68 98.8812C437.233 98.8812 426.165 105.266 422.312 117.953H377.219C380.827 99.9453 389.353 86.2754 402.635 77.0258C415.917 67.7761 433.626 63.1104 455.68 63.1104C480.112 63.1104 498.723 68.5947 511.595 79.4814C524.467 90.3682 530.862 106.33 530.862 127.203V185.32H552.178V230.095H506.266V203.329H494.788C489.131 212.824 481.588 220.109 472.078 225.266C462.567 230.423 450.761 233.042 436.578 233.042V233.206ZM443.464 198.827C451.991 198.827 459.616 197.271 466.175 194.161C472.734 191.05 477.899 186.958 481.752 181.719C485.605 176.562 487.491 170.668 487.491 164.12V161.664H442.645C426.247 161.664 418.049 167.803 418.049 179.918C418.049 185.893 420.344 190.559 424.854 193.833C429.363 197.108 435.594 198.745 443.464 198.745V198.827Z" fill="black"></path><path d="M580.628 230.259V111.323H558.246V66.5484H604.159V93.3151H615.637C622.032 83.8198 629.984 76.5347 639.659 71.3778C649.333 66.2209 661.303 63.6016 675.733 63.6016C698.525 63.6016 716.152 69.8226 728.614 82.2646C741.076 94.7066 747.307 111.405 747.307 132.36V230.341H701.968V140.873C701.968 128.84 698.689 119.754 692.294 113.451C685.817 107.149 676.389 104.038 664.009 104.038C651.629 104.038 642.2 107.149 635.723 113.451C629.246 119.754 626.049 128.84 626.049 140.873V230.341H580.71L580.628 230.259Z" fill="black"></path><path d="M857.413 299.018C832.817 299.018 812.812 294.025 797.399 284.12C781.986 274.216 772.803 260.464 769.934 242.783H818.06C822.405 256.207 835.113 263.001 856.019 263.001C870.203 263.001 881.107 259.809 888.65 253.342C896.193 246.876 899.964 237.544 899.964 225.348V203.493H898.57C893.651 212.251 886.846 218.881 878.238 223.383C869.629 227.885 859.217 230.177 847.247 230.177C831.751 230.177 818.306 226.739 806.909 219.945C795.513 213.151 786.659 203.411 780.428 190.887C774.115 178.363 770.999 163.629 770.999 146.685C770.999 121.228 778.05 100.928 792.152 85.8663C806.254 70.8049 825.602 63.1924 850.198 63.1924C864.054 63.1924 875.86 65.8118 885.616 71.1324C895.373 76.3711 903.162 83.7381 908.983 93.2333H920.461V66.4666H966.373V111.241H943.991V225.839C943.991 249.086 936.53 267.094 921.608 279.864C906.687 292.633 885.288 298.936 857.413 298.936V299.018ZM858.561 190.969C871.105 190.969 880.943 187.531 888.076 180.573C895.209 173.697 898.734 164.202 898.734 152.169V140.709C898.734 128.922 895.127 119.591 887.912 112.715C880.697 105.921 870.941 102.483 858.561 102.483C845.279 102.483 834.949 106.412 827.57 114.188C820.191 122.046 816.502 132.933 816.502 146.93C816.502 160.928 820.191 171.733 827.57 179.427C834.949 187.04 845.279 190.887 858.561 190.887V190.969Z" fill="black"></path><path d="M1066.81 233.533C1049.1 233.533 1033.77 230.013 1020.65 223.056C1007.53 216.098 997.447 206.112 990.315 193.342C983.182 180.491 979.656 165.348 979.656 147.912C979.656 130.477 983.1 115.416 990.069 102.728C996.955 90.1225 1006.88 80.3817 1019.75 73.5058C1032.62 66.63 1047.79 63.2739 1065.25 63.2739C1082.71 63.2739 1097.06 66.5481 1109.36 73.0966C1121.66 79.645 1131.09 88.9765 1137.64 101.173C1144.2 113.369 1147.48 127.94 1147.48 144.802V160.109H1023.11C1024.91 172.305 1029.59 181.555 1037.05 187.94C1044.51 194.324 1054.35 197.517 1066.56 197.517C1076.24 197.517 1083.86 195.88 1089.52 192.605C1095.18 189.331 1099.19 184.338 1101.57 177.626H1146.91C1143.3 195.061 1134.45 208.813 1120.43 218.717C1106.41 228.622 1088.53 233.615 1066.89 233.615L1066.81 233.533ZM1024.17 130.068H1103.95C1102.47 119.672 1098.45 111.896 1091.9 106.739C1085.34 101.582 1076.48 98.9629 1065.41 98.9629C1054.35 98.9629 1045.25 101.582 1038.19 106.903C1031.14 112.223 1026.47 119.918 1024.09 130.068H1024.17Z" fill="black"></path><path d="M1172 230.259V1.06396H1217.33V230.259H1172Z" fill="black"></path><path d="M1250.7 230.259V1.06396H1296.04V90.0408H1297.11C1302.35 81.2822 1309.49 74.7338 1318.42 70.2318C1327.36 65.8116 1337.94 63.5196 1350.15 63.5196C1370.73 63.5196 1387.13 69.7406 1399.18 82.1827C1411.31 94.6247 1417.38 111.323 1417.38 132.278V230.259H1372.04V140.791C1372.04 128.758 1368.85 119.672 1362.37 113.37C1355.89 107.067 1346.46 103.956 1334.08 103.956C1321.7 103.956 1312.27 107.067 1305.8 113.37C1299.32 119.672 1296.12 128.758 1296.12 140.791V230.259H1250.79H1250.7Z" fill="black"></path><path d="M1501.91 233.206C1482.56 233.206 1467.48 228.54 1456.57 219.127C1445.67 209.795 1440.17 197.435 1440.17 182.128C1440.17 165.921 1445.83 153.479 1457.14 144.72C1468.46 135.962 1484.69 131.623 1505.76 131.623H1552.74V125.32C1552.74 107.64 1542.16 98.8812 1521.01 98.8812C1502.57 98.8812 1491.5 105.266 1487.64 117.953H1442.55C1446.16 99.9453 1454.69 86.2754 1467.97 77.0258C1481.25 67.7761 1498.96 63.1104 1521.01 63.1104C1545.44 63.1104 1564.06 68.5947 1576.93 79.4814C1589.8 90.3682 1596.19 106.33 1596.19 127.203V185.32H1617.51V230.095H1571.6V203.329H1560.12C1554.46 212.824 1546.92 220.109 1537.41 225.266C1527.9 230.423 1516.09 233.042 1501.91 233.042V233.206ZM1508.71 198.827C1517.24 198.827 1524.87 197.271 1531.42 194.161C1537.98 191.05 1543.15 186.958 1547 181.719C1550.86 176.562 1552.74 170.668 1552.74 164.12V161.664H1507.89C1491.5 161.664 1483.3 167.803 1483.3 179.918C1483.3 185.893 1485.59 190.559 1490.1 193.833C1494.61 197.108 1500.84 198.745 1508.71 198.745V198.827Z" fill="black"></path><path d="M1716.39 233.533C1699.25 233.533 1684.25 230.013 1671.46 223.056C1658.59 216.098 1648.58 206.193 1641.37 193.424C1634.15 180.655 1630.55 165.675 1630.55 148.404C1630.55 131.132 1634.07 116.153 1641.21 103.383C1648.34 90.6136 1658.34 80.791 1671.29 73.7514C1684.25 66.7937 1699.25 63.2739 1716.39 63.2739C1738.03 63.2739 1755.9 68.7582 1769.92 79.645C1783.94 90.5318 1792.8 105.593 1796.41 124.665H1750.74C1748.36 117.544 1744.26 112.142 1738.44 108.294C1732.62 104.447 1725.24 102.565 1716.3 102.565C1704.09 102.565 1694.33 106.575 1686.95 114.597C1679.57 122.619 1675.89 133.915 1675.89 148.404C1675.89 162.892 1679.66 174.27 1687.12 182.21C1694.58 190.232 1704.33 194.243 1716.39 194.243C1735.74 194.243 1747.46 186.057 1751.64 169.686H1797.31C1794.03 189.74 1785.34 205.375 1771.32 216.589C1757.3 227.885 1739.01 233.533 1716.39 233.533Z" fill="black"></path><path d="M1813.7 230.259V1.06396H1859.04V125.239H1860.11L1924.63 66.5483H1978.74L1909.05 129.331L1983.91 230.259H1930.86L1877 156.835L1858.96 171.569V230.259H1813.62H1813.7Z" fill="black"></path><g clip-path="url(#clip0_1276_574)"><path d="M329.34 67.024C330.653 60.7199 321.545 58.254 319.476 64.2996C319.397 64.5581 319.317 64.7967 319.238 65.0553C310.786 89.8143 287.837 101.428 262.481 99.0019C219.605 97.7093 201.568 51.4527 196.636 14.8412C196.358 12.773 196.099 10.5258 195.96 8.69622C195.622 4.44045 192.082 1.07959 187.727 1.05971C183.133 0.642086 178.837 3.9234 178.519 8.63656C176.988 25.3017 172.772 42.265 166.01 57.5182C157.539 76.4504 143.856 92.4592 124.01 97.2121C104.66 101.547 82.1877 99.6582 67.7101 85.0017C62.2413 79.5527 57.8065 72.5724 55.3406 65.2342C55.2411 64.916 55.1417 64.5979 55.0423 64.2996C52.8349 58.2142 43.8659 60.6802 45.1387 67.0638C46.2126 71.3196 47.6643 75.2571 49.4143 78.8964C54.9826 95.6411 65.0055 128.951 68.2869 160.71C62.7981 164.569 57.5281 168.645 52.5564 173.001C52.0792 173.398 51.8604 173.995 51.9797 174.611C52.1189 175.268 52.6161 175.824 53.2525 176.023C53.4116 176.063 53.5905 176.103 53.7496 176.103C54.1673 176.103 54.5451 175.944 54.7639 175.705C59.1986 172.344 63.872 169.182 68.784 166.179C69.1619 170.932 69.3806 175.626 69.3806 180.2C69.3806 182.944 71.6079 185.171 74.3523 185.171C77.0967 185.171 79.324 182.944 79.324 180.2C79.324 173.876 78.9462 167.373 78.3098 160.83C90.4208 154.426 103.745 149.037 118.222 144.781C171.877 128.693 234.202 135.494 295.95 163.713C295.473 169.282 295.215 174.81 295.215 180.2C295.215 182.944 297.442 185.171 300.186 185.171C302.931 185.171 305.158 182.944 305.158 180.2C305.158 176.302 305.317 172.324 305.595 168.287C310.368 170.634 315.121 173.12 319.874 175.725C320.59 176.242 321.505 176.123 322.101 175.466C322.718 174.79 322.758 173.796 322.141 173.1C317.289 167.77 312.059 162.838 306.51 158.304C310.07 127.042 319.834 94.7661 325.243 78.5584C327.013 74.8793 328.465 71.1605 329.38 67.0439L329.34 67.024ZM127.291 111.491C158.732 105.127 177.942 76.4702 187.269 47.4953C195.144 71.777 209.105 95.4223 232.929 106.698C250.907 114.752 271.689 115.309 290.521 109.263C296.945 107.116 302.95 103.815 308.28 99.6184C304.084 114.633 299.769 132.889 297.283 151.364C267.651 130.682 230.145 120.181 188.641 121.394C148.908 122.568 109.87 134.42 77.6137 154.546C75.2273 135.017 70.6534 115.548 66.2186 99.6781C82.5655 112.227 105.296 116.025 127.311 111.471L127.291 111.491Z" fill="#D10F19"></path><path d="M187.233 158.463C123.376 158.463 71.6309 182.268 71.6309 211.641C71.6309 241.013 123.396 264.818 187.233 264.818C251.069 264.818 302.834 241.013 302.834 211.641C302.834 182.268 251.069 158.463 187.233 158.463ZM187.233 257.102C130.456 257.102 84.418 240.934 84.418 220.987C84.418 201.041 130.456 184.873 187.233 184.873C244.009 184.873 290.047 201.041 290.047 220.987C290.047 240.934 244.009 257.102 187.233 257.102Z" fill="#D10F19"></path></g><defs><clipPath id="clip0_1276_574"><rect width="284.46" height="263.837" fill="white" transform="translate(45 1)"></rect></clipPath></defs></svg>